<svg width="40" height="41" fill="none" xmlns="http://www.w3.org/2000/svg"><mask id="a" style="mask-type:alpha" maskUnits="userSpaceOnUse" x="0" y="0" width="40" height="23"><path d="M.361.383h38.706v22.35H.36V.384z" fill="#fff"/></mask><g mask="url(#a)"><path fill-rule="evenodd" clip-rule="evenodd" d="M.353 11.558v11.176h4.33v-8.676L19.71 5.383l15.026 8.675v8.676h4.33V11.558L19.71.383.353 11.558z" fill="#fff"/></g><path fill-rule="evenodd" clip-rule="evenodd" d="M30.404 28.919L19.71 35.104 9.016 28.92v-6.185H4.684v8.675l15.026 8.675 15.026-8.675v-8.675h-4.332v6.185zm-17.059-9.867l6.365-3.681 6.365 3.681v3.682h4.329v-6.186L19.71 10.363 9.016 16.548v6.186h4.33v-3.682z" fill="#fff"/><path fill-rule="evenodd" clip-rule="evenodd" d="M13.346 26.415l6.364 3.681 6.365-3.681v-3.681h-12.73v3.68z" fill="#fff"/></svg>