<svg width="125" height="40" fill="none" xmlns="http://www.w3.org/2000/svg"><mask id="a" maskUnits="userSpaceOnUse" x="0" y="0" width="39" height="23"><path d="M.008.006h38.99v22.516H.008V.006z" fill="#fff"/></mask><g mask="url(#a)"><path fill-rule="evenodd" clip-rule="evenodd" d="M0 11.264v11.258h4.362v-8.74L19.5 5.045l15.136 8.739v8.739h4.363V11.264L19.498.006 0 11.264z" fill="#fff"/></g><path fill-rule="evenodd" clip-rule="evenodd" d="M30.271 28.753L19.5 34.983l-10.773-6.23v-6.231H4.362v8.739L19.5 40l15.136-8.739v-8.739h-4.364v6.23zm-17.184-9.94l6.412-3.708 6.411 3.708v3.709h4.361v-6.23L19.5 10.06 8.727 16.291v6.23h4.36v-3.708z" fill="#fff"/><path fill-rule="evenodd" clip-rule="evenodd" d="M13.087 26.23l6.413 3.71 6.411-3.709v-3.708H13.087v3.708zm107.824-.064c0 2.136-1.801 3.937-3.998 3.937-2.167 0-3.968-1.8-3.968-3.937v-7.294c0-2.136 1.801-3.937 3.937-3.937 2.228 0 4.029 1.77 4.029 3.968v7.263zm-3.998-15.35a8.05 8.05 0 00-8.057 8.056v7.294a8.05 8.05 0 008.057 8.057c4.455 0 8.087-3.601 8.087-8.057v-7.294c0-4.455-3.632-8.057-8.087-8.057zM81.585 30.13h-5.158v-5.692h5.103c1.553 0 2.833 1.28 2.86 2.887a2.819 2.819 0 01-2.805 2.805zm-5.152-15.221h4.345a2.819 2.819 0 012.806 2.805c-.027 1.607-1.308 2.887-2.86 2.887h-4.291v-5.692zm9.24 7.255c1.16-1.175 1.893-2.761 1.893-4.505 0-3.54-2.86-6.4-6.373-6.4h-8.41v11.26h-.006v11.26H82c3.514 0 6.373-2.86 6.373-6.4 0-1.926-.974-3.914-2.698-5.215zm4.227-6.618l6.185-.002v18.24h4.345v-18.24l6.249.002v-4.282h-16.78v4.282zm-25.398-1.772l-4.027 5.786-4.027-5.786v-2.51h-4.363v3.689l5.779 7.6-5.779 7.823v3.403h4.363v-2.323l4.027-5.735 4.027 5.735v2.323h4.363v-3.403l-5.779-7.824 5.779-7.6v-3.688h-4.363v2.51z" fill="#fff"/></svg>