<svg width="57" height="67" fill="none" xmlns="http://www.w3.org/2000/svg"><mask id="a" maskUnits="userSpaceOnUse" x="9" y="0" width="40" height="23"><path d="M9.361.206h38.706v22.35H9.36V.207z" fill="#fff"/></mask><g mask="url(#a)"><path fill-rule="evenodd" clip-rule="evenodd" d="M9.353 11.381v11.176h4.33v-8.675L28.71 5.206l15.026 8.676v8.675h4.33V11.38L28.71.206 9.353 11.38z" fill="#fff"/></g><path fill-rule="evenodd" clip-rule="evenodd" d="M39.404 28.742L28.71 34.928l-10.694-6.186v-6.185h-4.332v8.675l15.026 8.675 15.026-8.675v-8.675h-4.332v6.185z" fill="#fff"/><path fill-rule="evenodd" clip-rule="evenodd" d="M22.346 18.875l6.364-3.681 6.365 3.681v3.682h4.329v-6.185L28.71 10.186l-10.694 6.186v6.185h4.33v-3.682zm0 7.363l6.364 3.682 6.365-3.682v-3.681h-12.73v3.681zm31.477 34.415c0 1.66-1.399 3.059-3.106 3.059-1.683 0-3.082-1.4-3.082-3.059v-5.667c0-1.66 1.399-3.058 3.058-3.058 1.731 0 3.13 1.375 3.13 3.082v5.643zm-3.106-11.926a6.253 6.253 0 00-6.26 6.26v5.666a6.253 6.253 0 006.26 6.26c3.462 0 6.283-2.798 6.283-6.26v-5.667c0-3.461-2.822-6.259-6.283-6.259zM23.27 63.732h-4.006V59.31h3.965c1.206 0 2.2.995 2.221 2.243a2.19 2.19 0 01-2.18 2.18zm-4.002-11.825h3.377a2.19 2.19 0 012.179 2.18c-.021 1.248-1.016 2.242-2.222 2.242h-3.334v-4.422zm7.18 5.637h-.002c.903-.913 1.472-2.145 1.472-3.5 0-2.75-2.222-4.972-4.951-4.972h-6.534v8.747h-.005v8.749h7.165c2.73 0 4.951-2.222 4.951-4.973 0-1.496-.757-3.04-2.096-4.05zm3.282-5.142l4.806-.001v14.17h3.376v-14.17l4.854.001v-3.326H29.731v3.326zM10 51.025l-3.13 4.496-3.128-4.496v-1.95H.352v2.866l4.49 5.904-4.49 6.079v2.644h3.39v-1.805l3.129-4.456L10 64.763v1.805h3.389v-2.644l-4.49-6.078 4.49-5.905v-2.865h-3.39v1.95z" fill="#fff"/></svg>