<svg width="50" height="50" fill="none" xmlns="http://www.w3.org/2000/svg"><circle cx="25" cy="25" r="23.5" stroke="#8AFBB8" stroke-width="3"/><path d="M13.334 22.667a3.5 3.5 0 013.5-3.5h16.333a3.5 3.5 0 013.5 3.5v10.5a3.5 3.5 0 01-3.5 3.5H16.833a3.5 3.5 0 01-3.5-3.5v-10.5z" fill="#8AFBB8"/><path fill-rule="evenodd" clip-rule="evenodd" d="M21.5 15.667c-.644 0-1.167.522-1.167 1.166v3.5a1.167 1.167 0 11-2.333 0v-3.5a3.5 3.5 0 013.5-3.5h7a3.5 3.5 0 013.5 3.5v3.5a1.167 1.167 0 01-2.333 0v-3.5c0-.644-.523-1.166-1.167-1.166h-7z" fill="#8AFBB8"/></svg>