<svg width="50" height="50" fill="none" xmlns="http://www.w3.org/2000/svg"><circle cx="25" cy="25" r="23.5" stroke="#8AFBB8" stroke-width="3"/><path d="M25 31.25c-.69 0-1.25.56-1.25 1.25v1.25h-2.5a1.25 1.25 0 100 2.5h7.5a1.25 1.25 0 100-2.5h-2.5V32.5c0-.69-.56-1.25-1.25-1.25zm-6.25-15a2.5 2.5 0 012.5-2.5h7.5a2.5 2.5 0 012.5 2.5v6.25a6.25 6.25 0 11-12.5 0v-6.25zm-3.75 0A3.75 3.75 0 0011.25 20v1.25A3.75 3.75 0 0015 25a1.25 1.25 0 100-2.5c-.69 0-1.25-.56-1.25-1.25V20c0-.69.56-1.25 1.25-1.25a1.25 1.25 0 100-2.5zm20 0A3.75 3.75 0 0138.75 20v1.25A3.75 3.75 0 0135 25a1.25 1.25 0 110-2.5c.69 0 1.25-.56 1.25-1.25V20c0-.69-.56-1.25-1.25-1.25a1.25 1.25 0 110-2.5z" fill="#8AFBB8"/></svg>