<svg width="50" height="50" fill="none" xmlns="http://www.w3.org/2000/svg"><circle cx="25" cy="25" r="23.5" stroke="#8AFBB8" stroke-width="3"/><path fill-rule="evenodd" clip-rule="evenodd" d="M29.65 12.5c4.673 1.74 8.106 6.023 8.617 11.167h-5.295c-.215-5.175-1.672-8.806-3.314-11.164l-.007-.002zM25 11.668c-4.058 1.922-5.186 8.113-5.363 12h10.666c-.185-4.065-1.339-9.804-5.303-12zm-4.739.866c-1.633 2.359-3.078 5.981-3.293 11.134h-5.236c.507-5.112 3.902-9.374 8.53-11.134zm9.39 24.967c4.672-1.74 8.106-6.023 8.616-11.167h-5.295c-.215 5.175-1.671 8.806-3.313 11.164l-.008.003zM25 38.333c-4.057-1.922-5.185-8.113-5.362-12h10.665c-.185 4.065-1.339 9.804-5.303 12zm-4.738-.866c-1.634-2.359-3.079-5.981-3.293-11.134h-5.237c.508 5.112 3.902 9.374 8.53 11.134z" fill="#8AFBB8"/></svg>