<svg width="50" height="50" fill="none" xmlns="http://www.w3.org/2000/svg"><circle cx="25" cy="25" r="23.5" stroke="#8AFBB8" stroke-width="3"/><path d="M16.25 13.75a1.25 1.25 0 10-2.5 0v2.5a1.25 1.25 0 102.5 0v-2.5zm0 17.5a1.25 1.25 0 10-2.5 0v2.5a1.25 1.25 0 102.5 0v-2.5zm10-13.75a1.25 1.25 0 10-2.5 0V20a1.25 1.25 0 102.5 0v-2.5zm0 16.25a1.25 1.25 0 10-2.5 0v2.5a1.25 1.25 0 102.5 0v-2.5zM35 12.5c.69 0 1.25.56 1.25 1.25v2.5a1.25 1.25 0 11-2.5 0v-2.5c0-.69.56-1.25 1.25-1.25zM35 30c.69 0 1.25.56 1.25 1.25v2.5a1.25 1.25 0 11-2.5 0v-2.5c0-.69.56-1.25 1.25-1.25zm-22.5-8.75c0-.69.56-1.25 1.25-1.25h2.5c.69 0 1.25.56 1.25 1.25v5c0 .69-.56 1.25-1.25 1.25h-2.5c-.69 0-1.25-.56-1.25-1.25v-5zm10 3.75c0-.69.56-1.25 1.25-1.25h2.5c.69 0 1.25.56 1.25 1.25v3.75c0 .69-.56 1.25-1.25 1.25h-2.5c-.69 0-1.25-.56-1.25-1.25V25zm11.25-5c-.69 0-1.25.56-1.25 1.25v5c0 .69.56 1.25 1.25 1.25h2.5c.69 0 1.25-.56 1.25-1.25v-5c0-.69-.56-1.25-1.25-1.25h-2.5z" fill="#8AFBB8"/></svg>