<svg width="13" height="13" viewBox="0 0 13 13" fill="none" xmlns="http://www.w3.org/2000/svg">
<path fill-rule="evenodd" clip-rule="evenodd" d="M0.687503 0.615784C0.994754 0.304504 1.49291 0.304504 1.80016 0.615784L6.58824 5.46666L11.3763 0.615784C11.6836 0.304504 12.1817 0.304504 12.489 0.615784C12.7962 0.927064 12.7962 1.43175 12.489 1.74303L7.70089 6.5939L12.6519 11.6099C12.9592 11.9211 12.9592 12.4258 12.6519 12.7371C12.3447 13.0484 11.8465 13.0484 11.5393 12.7371L6.58824 7.72115L1.63721 12.7371C1.32996 13.0484 0.831809 13.0484 0.524559 12.7371C0.217308 12.4258 0.217308 11.9211 0.524559 11.6099L5.47558 6.5939L0.687503 1.74303C0.380253 1.43175 0.380253 0.927064 0.687503 0.615784Z" fill="white"/>
</svg>
