<svg width="125" height="40" viewBox="0 0 125 40" fill="none" xmlns="http://www.w3.org/2000/svg">
<mask id="mask0" mask-type="alpha" maskUnits="userSpaceOnUse" x="0" y="0" width="39" height="23">
<path d="M0.00750732 0.00646973H38.9978V22.522H0.00750732V0.00646973Z" fill="white"/>
</mask>
<g mask="url(#mask0)">
<path fill-rule="evenodd" clip-rule="evenodd" d="M0 11.2642V22.522H4.3625V13.7828L19.4989 5.04384L34.6353 13.7828V22.522H38.9978V11.2642L19.4989 0.00646973L0 11.2642Z" fill="white"/>
</g>
<path fill-rule="evenodd" clip-rule="evenodd" d="M30.2711 28.7527L19.4989 34.9836L8.72649 28.7527V22.522H4.36249V31.261L19.4989 40L34.6352 31.261V22.522H30.2711V28.7527Z" fill="white"/>
<path fill-rule="evenodd" clip-rule="evenodd" d="M13.0874 18.8132L19.4989 15.1048L25.9104 18.8132V22.5219H30.2711V16.2911L19.4989 10.0601L8.7265 16.2911V22.5219H13.0874V18.8132Z" fill="white"/>
<path fill-rule="evenodd" clip-rule="evenodd" d="M13.0874 26.2303L19.4989 29.939L25.9104 26.2303V22.522H13.0874V26.2303Z" fill="white"/>
<path fill-rule="evenodd" clip-rule="evenodd" d="M120.911 26.1662C120.911 28.3025 119.11 30.1031 116.913 30.1031C114.746 30.1031 112.945 28.3025 112.945 26.1662V18.8723C112.945 16.7361 114.746 14.9354 116.882 14.9354C119.11 14.9354 120.911 16.7056 120.911 18.9029V26.1662ZM116.913 10.8154C112.457 10.8154 108.856 14.4167 108.856 18.8723V26.1662C108.856 30.6219 112.457 34.2231 116.913 34.2231C121.368 34.2231 125 30.6219 125 26.1662V18.8723C125 14.4167 121.368 10.8154 116.913 10.8154Z" fill="white"/>
<path fill-rule="evenodd" clip-rule="evenodd" d="M81.5846 30.13H76.4267V24.4377H81.5301C83.0826 24.4377 84.3627 25.7178 84.39 27.3248C84.39 28.8772 83.1099 30.13 81.5846 30.13ZM76.4326 14.9085H80.7785C82.3037 14.9085 83.5839 16.1613 83.5839 17.7138C83.5566 19.3207 82.2765 20.6008 80.724 20.6008H76.4326V14.9085ZM85.6739 22.1645C85.6734 22.164 85.6726 22.1637 85.6721 22.1633C86.8337 20.9894 87.5661 19.4028 87.5661 17.6593C87.5661 14.1187 84.7064 11.2589 81.193 11.2589H72.783V22.5183C72.7797 22.5188 72.7771 22.5192 72.7771 22.5192V33.7795H81.9991C85.5127 33.7795 88.3724 30.9198 88.3724 27.3792C88.3724 25.4534 87.398 23.4647 85.6739 22.1645Z" fill="white"/>
<path fill-rule="evenodd" clip-rule="evenodd" d="M89.8994 15.5462L96.0847 15.544V33.7848H100.43V15.544L106.679 15.5462V11.2642H89.8994V15.5462Z" fill="white"/>
<path fill-rule="evenodd" clip-rule="evenodd" d="M64.5022 13.7738L60.4749 19.5599L56.4478 13.7738V11.2642H52.0853V14.9527L57.8639 22.5524L52.0853 30.3764V33.7795H56.4478V31.4562L60.4749 25.7214L64.5022 31.4562V33.7795H68.8647V30.3764L63.086 22.5524L68.8647 14.9527V11.2642H64.5022V13.7738Z" fill="white"/>
</svg>
