<svg width="57" height="67" viewBox="0 0 57 67" fill="none" xmlns="http://www.w3.org/2000/svg">
<mask id="mask0" mask-type="alpha" maskUnits="userSpaceOnUse" x="9" y="0" width="40" height="23">
<path d="M9.36117 0.205811H48.0667V22.5569H9.36117V0.205811Z" fill="white"/>
</mask>
<g mask="url(#mask0)">
<path fill-rule="evenodd" clip-rule="evenodd" d="M9.35327 11.3814V22.5569H13.6839V13.8816L28.7098 5.20641L43.7356 13.8816V22.5569H48.0663V11.3814L28.7098 0.205811L9.35327 11.3814Z" fill="white"/>
</g>
<path fill-rule="evenodd" clip-rule="evenodd" d="M39.4038 28.7421L28.7102 34.9275L18.0165 28.7421V22.5569H13.6843V31.2321L28.7102 39.9073L43.7361 31.2321V22.5569H39.4038V28.7421Z" fill="white"/>
<path fill-rule="evenodd" clip-rule="evenodd" d="M22.3455 18.8752L28.7102 15.1939L35.0749 18.8752V22.5569H39.4038V16.3715L28.7102 10.186L18.0165 16.3715V22.5569H22.3455V18.8752Z" fill="white"/>
<path fill-rule="evenodd" clip-rule="evenodd" d="M22.3456 26.2382L28.7102 29.9197L35.0749 26.2382V22.5569H22.3456V26.2382Z" fill="white"/>
<path fill-rule="evenodd" clip-rule="evenodd" d="M53.8229 60.653C53.8229 62.3127 52.4241 63.7115 50.717 63.7115C49.0336 63.7115 47.6348 62.3127 47.6348 60.653V54.9864C47.6348 53.3268 49.0336 51.9279 50.6933 51.9279C52.4241 51.9279 53.8229 53.3031 53.8229 55.0102V60.653ZM50.717 48.7271C47.2554 48.7271 44.4577 51.5248 44.4577 54.9864V60.653C44.4577 64.1146 47.2554 66.9123 50.717 66.9123C54.1785 66.9123 57 64.1146 57 60.653V54.9864C57 51.5248 54.1785 48.7271 50.717 48.7271Z" fill="white"/>
<path fill-rule="evenodd" clip-rule="evenodd" d="M23.2708 63.7324H19.2637V59.31H23.2285C24.4346 59.31 25.4291 60.3046 25.4503 61.553C25.4503 62.7591 24.4558 63.7324 23.2708 63.7324ZM19.2683 51.9069H22.6445C23.8295 51.9069 24.824 52.8802 24.824 54.0863C24.8029 55.3347 23.8083 56.3292 22.6022 56.3292H19.2683V51.9069ZM26.4477 57.5441C26.4473 57.5437 26.4468 57.5434 26.4464 57.5431C27.3488 56.6311 27.9178 55.3985 27.9178 54.0439C27.9178 51.2933 25.6961 49.0715 22.9666 49.0715H16.4329V57.8189C16.4304 57.8193 16.4283 57.8196 16.4283 57.8196V66.5677H23.5928C26.3226 66.5677 28.5442 64.346 28.5442 61.5953C28.5442 60.0992 27.7872 58.5541 26.4477 57.5441Z" fill="white"/>
<path fill-rule="evenodd" clip-rule="evenodd" d="M29.7305 52.4023L34.5359 52.4007V66.5718H37.9118V52.4007L42.7664 52.4023V49.0757H29.7305V52.4023Z" fill="white"/>
<path fill-rule="evenodd" clip-rule="evenodd" d="M9.99955 51.0254L6.8708 55.5206L3.74215 51.0254V49.0757H0.35294V51.9413L4.84233 57.8455L0.35294 63.9239V66.5678H3.74215V64.7627L6.8708 60.3074L9.99955 64.7627V66.5678H13.3888V63.9239L8.89937 57.8455L13.3888 51.9413V49.0757H9.99955V51.0254Z" fill="white"/>
</svg>
