<svg width="50" height="50" viewBox="0 0 50 50" fill="none" xmlns="http://www.w3.org/2000/svg">
<circle cx="25" cy="25" r="23.5" stroke="#8AFBB8" stroke-width="3"/>
<path d="M25 31.25C24.3096 31.25 23.75 31.8096 23.75 32.5V33.75H21.25C20.5596 33.75 20 34.3096 20 35C20 35.6904 20.5596 36.25 21.25 36.25H28.75C29.4404 36.25 30 35.6904 30 35C30 34.3096 29.4404 33.75 28.75 33.75H26.25V32.5C26.25 31.8096 25.6904 31.25 25 31.25Z" fill="#8AFBB8"/>
<path d="M18.75 16.25C18.75 14.8693 19.8693 13.75 21.25 13.75H28.75C30.1307 13.75 31.25 14.8693 31.25 16.25V22.5C31.25 25.9518 28.4518 28.75 25 28.75C21.5482 28.75 18.75 25.9518 18.75 22.5V16.25Z" fill="#8AFBB8"/>
<path d="M15 16.25C12.9289 16.25 11.25 17.9289 11.25 20V21.25C11.25 23.3211 12.9289 25 15 25C15.6904 25 16.25 24.4404 16.25 23.75C16.25 23.0596 15.6904 22.5 15 22.5C14.3096 22.5 13.75 21.9404 13.75 21.25V20C13.75 19.3096 14.3096 18.75 15 18.75C15.6904 18.75 16.25 18.1904 16.25 17.5C16.25 16.8096 15.6904 16.25 15 16.25Z" fill="#8AFBB8"/>
<path d="M35 16.25C37.0711 16.25 38.75 17.9289 38.75 20V21.25C38.75 23.3211 37.0711 25 35 25C34.3096 25 33.75 24.4404 33.75 23.75C33.75 23.0596 34.3096 22.5 35 22.5C35.6904 22.5 36.25 21.9404 36.25 21.25V20C36.25 19.3096 35.6904 18.75 35 18.75C34.3096 18.75 33.75 18.1904 33.75 17.5C33.75 16.8096 34.3096 16.25 35 16.25Z" fill="#8AFBB8"/>
</svg>
