<svg width="50" height="50" viewBox="0 0 50 50" fill="none" xmlns="http://www.w3.org/2000/svg">
<circle cx="25" cy="25" r="23.5" stroke="#8AFBB8" stroke-width="3"/>
<path fill-rule="evenodd" clip-rule="evenodd" d="M29.6507 12.5005C34.3227 14.2397 37.7563 18.5233 38.2669 23.6667H32.972C32.7565 18.4923 31.3004 14.8611 29.6583 12.5033L29.6507 12.5005ZM24.9995 11.6667C20.9425 13.5894 19.8145 19.7799 19.6374 23.6667H30.3028C30.1176 19.6022 28.964 13.8635 24.9995 11.6667ZM20.2612 12.5332C18.6276 14.8917 17.1828 18.5141 16.9682 23.6667H11.7319C12.2394 18.5553 15.6336 14.293 20.2612 12.5332ZM29.651 37.4997C34.323 35.7605 37.7566 31.4769 38.2673 26.3334H32.9723C32.7569 31.5079 31.3007 35.139 29.6586 37.4968L29.651 37.4997ZM24.9998 38.3334C20.9428 36.4108 19.8148 30.2203 19.6377 26.3334H30.3032C30.1179 30.398 28.9643 36.1367 24.9998 38.3334ZM20.2615 37.467C18.6279 35.1084 17.1831 31.486 16.9686 26.3334H11.7323C12.2398 31.4449 15.634 35.7072 20.2615 37.467Z" fill="#8AFBB8"/>
</svg>
