<svg width="50" height="50" viewBox="0 0 50 50" fill="none" xmlns="http://www.w3.org/2000/svg">
<circle cx="25" cy="25" r="23.5" stroke="#8AFBB8" stroke-width="3"/>
<path d="M16.25 13.75C16.25 13.0596 15.6904 12.5 15 12.5C14.3096 12.5 13.75 13.0596 13.75 13.75V16.25C13.75 16.9404 14.3096 17.5 15 17.5C15.6904 17.5 16.25 16.9404 16.25 16.25V13.75Z" fill="#8AFBB8"/>
<path d="M16.25 31.25C16.25 30.5596 15.6904 30 15 30C14.3096 30 13.75 30.5596 13.75 31.25V33.75C13.75 34.4404 14.3096 35 15 35C15.6904 35 16.25 34.4404 16.25 33.75V31.25Z" fill="#8AFBB8"/>
<path d="M26.25 17.5C26.25 16.8096 25.6904 16.25 25 16.25C24.3096 16.25 23.75 16.8096 23.75 17.5V20C23.75 20.6904 24.3096 21.25 25 21.25C25.6904 21.25 26.25 20.6904 26.25 20V17.5Z" fill="#8AFBB8"/>
<path d="M26.25 33.75C26.25 33.0596 25.6904 32.5 25 32.5C24.3096 32.5 23.75 33.0596 23.75 33.75V36.25C23.75 36.9404 24.3096 37.5 25 37.5C25.6904 37.5 26.25 36.9404 26.25 36.25V33.75Z" fill="#8AFBB8"/>
<path d="M35 12.5C35.6904 12.5 36.25 13.0596 36.25 13.75V16.25C36.25 16.9404 35.6904 17.5 35 17.5C34.3096 17.5 33.75 16.9404 33.75 16.25V13.75C33.75 13.0596 34.3096 12.5 35 12.5Z" fill="#8AFBB8"/>
<path d="M35 30C35.6904 30 36.25 30.5596 36.25 31.25V33.75C36.25 34.4404 35.6904 35 35 35C34.3096 35 33.75 34.4404 33.75 33.75V31.25C33.75 30.5596 34.3096 30 35 30Z" fill="#8AFBB8"/>
<path d="M12.5 21.25C12.5 20.5596 13.0596 20 13.75 20H16.25C16.9404 20 17.5 20.5596 17.5 21.25V26.25C17.5 26.9404 16.9404 27.5 16.25 27.5H13.75C13.0596 27.5 12.5 26.9404 12.5 26.25V21.25Z" fill="#8AFBB8"/>
<path d="M22.5 25C22.5 24.3096 23.0596 23.75 23.75 23.75H26.25C26.9404 23.75 27.5 24.3096 27.5 25V28.75C27.5 29.4404 26.9404 30 26.25 30H23.75C23.0596 30 22.5 29.4404 22.5 28.75V25Z" fill="#8AFBB8"/>
<path d="M33.75 20C33.0596 20 32.5 20.5596 32.5 21.25V26.25C32.5 26.9404 33.0596 27.5 33.75 27.5H36.25C36.9404 27.5 37.5 26.9404 37.5 26.25V21.25C37.5 20.5596 36.9404 20 36.25 20H33.75Z" fill="#8AFBB8"/>
</svg>
