<svg width="50" height="50" viewBox="0 0 50 50" fill="none" xmlns="http://www.w3.org/2000/svg">
<circle cx="25" cy="25" r="23.5" stroke="#8AFBB8" stroke-width="3"/>
<path d="M13.3335 22.6667C13.3335 20.7338 14.9005 19.1667 16.8335 19.1667H33.1668C35.0998 19.1667 36.6668 20.7338 36.6668 22.6667V33.1667C36.6668 35.0997 35.0998 36.6667 33.1668 36.6667H16.8335C14.9005 36.6667 13.3335 35.0997 13.3335 33.1667V22.6667Z" fill="#8AFBB8"/>
<path fill-rule="evenodd" clip-rule="evenodd" d="M21.5 15.6666C20.8557 15.6666 20.3333 16.1889 20.3333 16.8333V20.3333C20.3333 20.9776 19.811 21.4999 19.1667 21.4999C18.5223 21.4999 18 20.9776 18 20.3333V16.8333C18 14.9003 19.567 13.3333 21.5 13.3333H28.5C30.433 13.3333 32 14.9003 32 16.8333V20.3333C32 20.9776 31.4777 21.4999 30.8333 21.4999C30.189 21.4999 29.6667 20.9776 29.6667 20.3333V16.8333C29.6667 16.1889 29.1443 15.6666 28.5 15.6666H21.5Z" fill="#8AFBB8"/>
</svg>
